# xmcd
#
# Track frame offsets:
#	150
#	30557
#	42156
#	65353
#	76952
#	81341
#	97799
#	116608
#	126796
#	144507
#	150620
#	169429
#	179617
#	204068
#	213159
#	229725
#
# Disc length: 3425 seconds
#
# Revision: 1
# Processed by: cddbd v1.5.1PL0 Copyright (c) Steve Scherf et al.
# Submitted via: audiograbber 1.83.01
#
DISCID=cd0d5f10
DTITLE=Lil Wayne - SQ5 [CD2]
DYEAR=2003
DGENRE=Rap
TTITLE0=Sqad Check In Intro
TTITLE1=Work It Freestyle
TTITLE2=This My Party Freestyle ft Sqad
TTITLE3=React Freestyle
TTITLE4=Interlude 1
TTITLE5=Sick of Being Lonely Freestyle
TTITLE6=Yall Ain't Fuckin Wit Me
TTITLE7=Full Mode Freestyle ft. J Gutter
TTITLE8=Waitin For Lil Weezy
TTITLE9=Interlude 2
TTITLE10=Ya Ya Ya ft. Nivea
TTITLE11=Bonnie and Clyde Freestyle
TTITLE12=Mixtape Murda ft J Gutter
TTITLE13=Throwback Freestyle
TTITLE14=Interlude 3
TTITLE15=The Champions Freestyle ft. Sqad
EXTD=
EXTT0=
EXTT1=
EXTT2=
EXTT3=
EXTT4=
EXTT5=
EXTT6=
EXTT7=
EXTT8=
EXTT9=
EXTT10=
EXTT11=
EXTT12=
EXTT13=
EXTT14=
EXTT15=
PLAYORDER=
